# xmcd
#
# Track frame offsets: 
#        150
#        21483
#        51623
#        73656
#        103345
#        125508
#        150121
#        170546
#        202026
#        221766
#
# Disc length: 3241 seconds
#
# Revision: 0
# Processed by: cddbd v1.5.2PL0 Copyright (c) Steve Scherf et al.
# Submitted via: ExactAudioCopy v1.2
#
DISCID=990ca70a
DTITLE=Hương Lan - Chuyện hợp tan
DYEAR=2005
DGENRE=
TTITLE0=Chuyện hợp tan
TTITLE1=Hai kỷ niệm một chuyến đi
TTITLE2=Ai khổ vì ai
TTITLE3=Mưa trên phố Huế
TTITLE4=Chiều hạ vàng
TTITLE5=Một chuyến bay đêm
TTITLE6=Gió lạnh đêm hè
TTITLE7=Lưu bút ngày xanh
TTITLE8=Thư gởi miền xa
TTITLE9=Anh ơi! Đừng đến nữa
EXTD=
EXTT0=
EXTT1=
EXTT2=
EXTT3=
EXTT4=
EXTT5=
EXTT6=
EXTT7=
EXTT8=
EXTT9=
PLAYORDER=
